<svg width="240" height="240" viewBox="0 0 240 240" fill="none" xmlns="http://www.w3.org/2000/svg">
  <defs>
    <linearGradient id="mochiBg" x1="0" y1="0" x2="240" y2="240" gradientUnits="userSpaceOnUse">
      <stop offset="0%" stop-color="#FFF0EB" />
      <stop offset="100%" stop-color="#FFE4DD" />
    </linearGradient>
    <linearGradient id="mochiBody" x1="40" y1="40" x2="200" y2="210" gradientUnits="userSpaceOnUse">
      <stop offset="0%" stop-color="#FFFFFF" />
      <stop offset="85%" stop-color="#FFF3EF" />
      <stop offset="100%" stop-color="#FFDBD0" />
    </linearGradient>
    <linearGradient id="leafGrad" x1="120" y1="8" x2="120" y2="52" gradientUnits="userSpaceOnUse">
      <stop offset="0%" stop-color="#34D399" />
      <stop offset="100%" stop-color="#059669" />
    </linearGradient>
    <filter id="mochiShadow" x="15" y="175" width="210" height="55" filterUnits="userSpaceOnUse" color-interpolation-filters="sRGB">
      <feGaussianBlur stdDeviation="8" />
    </filter>
  </defs>

  <!-- Soft Ambient Drop Shadow -->
  <ellipse cx="120" cy="202" rx="76" ry="15" fill="#AB3500" fill-opacity="0.16" filter="url(#mochiShadow)" />

  <!-- Clean Natural Hand Nubs (Resting Side Pose) -->
  <path d="M40 148C26 155 24 170 38 172Z" fill="url(#mochiBody)" stroke="#AB3500" stroke-width="4.5" stroke-linecap="round" stroke-linejoin="round"/>
  <path d="M200 148C214 155 216 170 202 172Z" fill="url(#mochiBody)" stroke="#AB3500" stroke-width="4.5" stroke-linecap="round" stroke-linejoin="round"/>

  <!-- Main Mochi Squishy Body -->
  <path d="M34 148C24 93 56 48 120 48C184 48 216 93 206 148C198 188 166 204 120 204C74 204 42 188 34 148Z" fill="url(#mochiBody)" stroke="#AB3500" stroke-width="5" stroke-linecap="round" stroke-linejoin="round"/>

  <!-- Rosy Pastel Cheeks -->
  <ellipse cx="72" cy="140" rx="15" ry="9" fill="#F472B6" fill-opacity="0.6" />
  <ellipse cx="168" cy="140" rx="15" ry="9" fill="#F472B6" fill-opacity="0.6" />

  <!-- Pensive Tilted Eyebrows (Thoughtful Expression) -->
  <path d="M74 96Q84 90 94 96" stroke="#4C1D95" stroke-width="3.5" stroke-linecap="round" fill="none"/>
  <path d="M146 96Q156 90 166 96" stroke="#4C1D95" stroke-width="3.5" stroke-linecap="round" fill="none"/>

  <!-- Curious Looking-Up Eyes (Pensive Gaze) -->
  <!-- Left Eye -->
  <ellipse cx="86" cy="114" rx="10" ry="12" fill="#4C1D95" />
  <circle cx="89" cy="108" r="4.5" fill="white" />
  <circle cx="83" cy="118" r="2" fill="white" />

  <!-- Right Eye -->
  <ellipse cx="162" cy="114" rx="10" ry="12" fill="#4C1D95" />
  <circle cx="165" cy="108" r="4.5" fill="white" />
  <circle cx="159" cy="118" r="2" fill="white" />

  <!-- Cute Pensive 'o' Mouth -->
  <ellipse cx="120" cy="136" rx="5" ry="6" fill="#4C1D95" />

  <!-- Serene Sprout Leaf -->
  <path d="M120 48C120 26 102 10 82 17C82 36 100 48 120 48Z" fill="url(#leafGrad)" stroke="#047857" stroke-width="3" stroke-linecap="round" stroke-linejoin="round"/>
  <path d="M120 48C120 26 138 10 158 17C158 36 140 48 120 48Z" fill="#6EE7B7" stroke="#047857" stroke-width="3" stroke-linecap="round" stroke-linejoin="round"/>
  <path d="M120 48V32" stroke="#047857" stroke-width="3" stroke-linecap="round"/>

  <!-- Subtle Thinking Sparkles -->
  <path d="M196 28L198 36L206 38L198 40L196 48L194 40L186 38L194 36L196 28Z" fill="#F59E0B"/>
  <path d="M42 42L43 47L48 48L43 49L42 54L41 49L36 48L41 47L42 42Z" fill="#3B82F6" opacity="0.8"/>
</svg>
